# xmcd
#
# Track frame offsets:
#	150
#	18713
#	45969
#	62315
#	85725
#	109483
#	129797
#	152985
#	172879
#	195101
#
# Disc length: 2803 seconds
#
# Revision: 1
# Processed by: cddbd v1.5.2PL0 Copyright (c) Steve Scherf et al.
# Submitted via: EZCDAudioConverter 8.0.2.1
#
DISCID=6d0af10a
DTITLE=Huỳnh Lợi - Nhạc CM. Việt Nam Quê Hương Tôi
DYEAR=2012
DGENRE=
TTITLE0=Giai điệu tổ quốc
TTITLE1=Đất nước
TTITLE2=Người mẹ
TTITLE3=Quê hương anh bộ đội
TTITLE4=Điệp khúc tình yêu
TTITLE5=Sáng mãi tên Người - Hồ Chí Minh
TTITLE6=Lửa thiêng dân tộc
TTITLE7=Bến cảng quê hương tôi
TTITLE8=Tình em biển cả
TTITLE9=Việt Nam quê hương tôi
EXTD=
EXTT0=
EXTT1=
EXTT2=
EXTT3=
EXTT4=
EXTT5=
EXTT6=
EXTT7=
EXTT8=
EXTT9=
PLAYORDER=
